<svg width="188" height="77" viewBox="0 0 188 77" fill="none" xmlns="http://www.w3.org/2000/svg">
<path fill-rule="evenodd" clip-rule="evenodd" d="M3.71282 60.1548C2.97786 60.4165 2.42853 60.9751 2.15981 61.7344C2.02593 62.1123 2 63.1785 2 68.2905C2 75.0784 1.99568 75.0326 2.71432 75.77C3.50817 76.5846 2.91087 76.5299 11.3734 76.563L18.9639 76.5928V75.244V73.8953H12.9617C6.62457 73.8953 6.46508 73.8835 6.28107 73.4059C6.24423 73.31 6.21397 70.9878 6.21397 68.2454C6.21397 63.497 6.2238 63.2471 6.42046 63.005L6.62694 62.7508L12.7684 62.697L18.9099 62.6431L18.9403 61.3241L18.9706 60.0051L11.5388 60.0098C5.7151 60.0135 4.02174 60.0449 3.71282 60.1548ZM20.8008 68.2961V76.5872H22.9078H25.0148V72.9262V69.2652H29.6609H34.3071V72.9262V76.5872H36.4141H38.5211V68.2961V60.0051H36.4141H34.3071V63.2892V66.5733H29.6609H25.0148V63.2892V60.0051H22.9078H20.8008V68.2961ZM43.9112 60.1537C43.3051 60.3694 42.8711 60.7268 42.5464 61.2773L42.2488 61.7817V68.3045V74.8274L42.5758 75.3545C42.7785 75.6811 43.104 76.0055 43.4317 76.2075L43.9606 76.5333L52.208 76.5628L60.4554 76.5923V75.2462V73.9L53.6511 73.8707L46.8469 73.8414L46.6008 73.5964C46.3649 73.3614 46.3532 73.2672 46.3193 71.3082L46.2839 69.2652H52.7753H59.2668V67.9201V66.575L52.8108 66.5472L46.3548 66.5195V64.8679V63.2164L46.658 62.9567L46.9611 62.697H53.114H59.2668V61.351V60.0051L51.7843 60.0098C45.9525 60.0135 44.2157 60.0452 43.9112 60.1537ZM60.9343 60.5704C62.8923 64.9798 67.3626 74.8542 67.6185 75.335C67.8361 75.7438 68.1064 76.067 68.3842 76.2502L68.8135 76.5333H71.4146C74.8553 76.5333 74.6593 76.645 75.8795 73.9908C76.5268 72.583 81.5722 61.3705 81.9668 60.4627L82.1659 60.0051L79.9816 60.0081L77.7975 60.0112L74.937 66.7942C73.3636 70.525 72.029 73.6247 71.971 73.6825C71.8188 73.8341 70.9819 73.8119 70.8566 73.653C70.7982 73.579 69.4673 70.4786 67.899 66.7633L65.0475 60.0082L62.8654 60.0067L60.6833 60.0051L60.9343 60.5704ZM83.9023 68.2936V76.5872H86.0093H88.1163V69.6389V62.6907L93.1377 62.7208L98.1592 62.7508L98.4052 62.9961C98.6387 63.2288 98.6512 63.3214 98.6512 64.8089V66.3766L98.348 66.6365L98.0449 66.8963H94.4745C90.6308 66.8963 90.3423 66.9338 90.0866 67.4665C89.7111 68.2493 89.8599 68.6381 90.8457 69.4491C91.2759 69.803 93.3963 71.554 95.5576 73.34L99.4873 76.5872H102.631C105.274 76.5872 105.75 76.564 105.617 76.442C105.53 76.3622 103.586 74.8782 101.298 73.1442C99.0105 71.4103 97.0426 69.9008 96.9255 69.7899C96.7167 69.5924 96.7547 69.5882 98.7623 69.5871C100.685 69.5862 100.846 69.5705 101.357 69.3334C101.987 69.041 102.392 68.6049 102.644 67.9483C102.796 67.5511 102.817 67.0724 102.789 64.6243L102.757 61.7642L102.43 61.2374C102.228 60.9113 101.902 60.5865 101.574 60.3847L101.045 60.0589L92.4739 60.0295L83.9023 60V68.2936ZM108.009 60.2888C107.373 60.6044 106.873 61.1999 106.697 61.8491C106.626 62.1148 106.597 64.4799 106.617 68.5354L106.647 74.8105L106.937 75.3026C107.264 75.8563 107.841 76.2947 108.484 76.4765C108.793 76.5639 111.055 76.5894 116.426 76.5661C124.799 76.5296 124.21 76.5844 125.006 75.7679C125.731 75.0235 125.726 75.076 125.693 68.126L125.664 61.8894L125.41 61.375C125.13 60.8088 124.639 60.3801 124.016 60.1587C123.693 60.0437 122.091 60.0136 116.096 60.0098L108.58 60.0051L108.009 60.2888ZM129.392 68.2961V76.5872H137.982H146.572V75.2412V73.8953H140.089H133.606V66.9502V60.0051H131.499H129.392V68.2961ZM149.693 60.1537C149.087 60.3694 148.653 60.7268 148.328 61.2773L148.03 61.7817V68.2961C148.03 75.5099 147.989 75.0761 148.741 75.8251C149.498 76.5801 148.873 76.5302 157.998 76.5628L166.237 76.5923V75.2462V73.9L159.42 73.8707L152.603 73.8414L152.397 73.5872C152.21 73.357 152.19 73.1411 152.19 71.2991V69.2652H158.619H165.048V67.9192V66.5733H158.619H152.19V64.9163C152.19 63.4453 152.214 63.2306 152.397 63.005L152.603 62.7508L158.826 62.7213L165.048 62.6918V61.3484V60.0051L157.566 60.0098C151.734 60.0135 149.997 60.0452 149.693 60.1537ZM167.209 61.351V62.697H170.883H174.557V69.6421V76.5872H176.664H178.771V69.6421V62.697H182.444H186.118V61.351V60.0051H176.664H167.209V61.351ZM111.083 62.9506C110.88 63.1523 110.813 63.3672 110.756 64.0005C110.655 65.1025 110.735 73.1512 110.849 73.3878C111.084 73.8762 111.283 73.8953 116.155 73.8953C120.998 73.8953 121.258 73.8711 121.437 73.4059C121.474 73.31 121.504 70.9803 121.504 68.2286V63.2255L121.239 62.9613L120.974 62.697H116.155H111.337L111.083 62.9506Z" fill="#fdc82a"/>
<path d="M39.2334 10.3281L27.1016 35.1877C27.0547 35.2838 27.1246 35.3958 27.2316 35.3958H72.0173C72.0972 35.3958 72.162 35.4606 72.162 35.5405V44.2209C72.162 44.3008 72.2268 44.3655 72.3067 44.3655H115.082C115.161 44.3655 115.226 44.3008 115.226 44.2209V35.5405C115.226 35.4606 115.291 35.3958 115.371 35.3958H148.025C148.08 35.3958 148.131 35.3643 148.155 35.3146L160.287 10.455C160.334 10.3589 160.264 10.2469 160.157 10.2469H115.371C115.291 10.2469 115.226 10.1821 115.226 10.1022V1.56655C115.226 1.48665 115.161 1.42188 115.082 1.42188H72.3067C72.2268 1.42188 72.162 1.48665 72.162 1.56655V10.1022C72.162 10.1821 72.0972 10.2469 72.0173 10.2469H39.3634C39.3081 10.2469 39.2577 10.2784 39.2334 10.3281Z" fill="#fdc82a" stroke="#fdc82a" stroke-width="2" stroke-linejoin="round"/>
<path d="M48.7248 14.5385L40.7196 30.2596H76.5912L76.5912 39.9285H110.797L110.797 30.2596H138.542L146.065 14.5385H110.797V5.83398H76.5912V14.5385H48.7248Z" fill="#fdc82a" stroke="#272727" stroke-width="3" stroke-linejoin="round"/>
</svg>
