<svg width="64" height="64" viewBox="0 0 64 64" fill="none" xmlns="http://www.w3.org/2000/svg">
<path d="M24.8267 39.1999L28.8267 43.1999L39.4933 32.5332" stroke="#FDC82A" stroke-width="3" stroke-linecap="round" stroke-linejoin="round"/>
<path d="M26.6666 16.0002H37.3333C42.6666 16.0002 42.6666 13.3335 42.6666 10.6668C42.6666 5.3335 40 5.3335 37.3333 5.3335H26.6666C24 5.3335 21.3333 5.3335 21.3333 10.6668C21.3333 16.0002 24 16.0002 26.6666 16.0002Z" stroke="#FDC82A" stroke-width="3" stroke-miterlimit="10" stroke-linecap="round" stroke-linejoin="round"/>
<path d="M42.6667 10.7202C51.5467 11.2002 56 14.4802 56 26.6669V42.6669C56 53.3335 53.3333 58.6669 40 58.6669H24C10.6667 58.6669 8 53.3335 8 42.6669V26.6669C8 14.5069 12.4533 11.2002 21.3333 10.7202" stroke="#FDC82A" stroke-width="3" stroke-miterlimit="10" stroke-linecap="round" stroke-linejoin="round"/>
</svg>
