<svg width="30" height="30" viewBox="0 0 30 30" fill="none" xmlns="http://www.w3.org/2000/svg">
<path d="M1.95651 2.08281C-0.393759 4.52404 0.0872607 7.11731 0.0872607 14.9956C0.0872607 21.5379 -1.05423 28.0965 4.91989 29.6405C6.78539 30.1203 23.3145 30.1203 25.1775 29.638C27.6649 28.9962 29.6886 26.9787 29.9653 23.4608C30.0039 22.9698 30.0039 7.03008 29.964 6.52912C29.6699 2.78191 27.3633 0.622305 24.3239 0.184901C23.6273 0.0839621 23.4877 0.0540542 19.9137 0.0478234C7.2365 0.0540542 4.45756 -0.510458 1.95651 2.08281Z" fill="url(#paint0_linear_332_16744)"/>
<path d="M15.0387 3.95963C10.5139 3.95963 6.21711 3.55712 4.57591 7.76916C3.898 9.5088 3.99644 11.7681 3.99644 15.0031C3.99644 17.8419 3.90547 20.5099 4.57591 22.2359C6.21337 26.4504 10.545 26.0466 15.0362 26.0466C19.3691 26.0466 23.8366 26.4978 25.4978 22.2359C26.1769 20.4788 26.0772 18.2531 26.0772 15.0031C26.0772 10.6889 26.3152 7.90374 24.2229 5.81268C22.1045 3.6942 19.2395 3.95963 15.0337 3.95963H15.0387ZM14.0492 5.94976C23.4877 5.9348 24.689 4.88553 24.026 19.4619C23.7905 24.6173 19.8651 24.0515 15.0399 24.0515C6.24203 24.0515 5.98906 23.7998 5.98906 14.9982C5.98906 6.09431 6.68691 5.95474 14.0492 5.94726V5.94976ZM20.9331 7.78286C20.5817 7.78286 20.2448 7.92243 19.9964 8.17085C19.7479 8.41928 19.6084 8.75621 19.6084 9.10754C19.6084 9.45886 19.7479 9.7958 19.9964 10.0442C20.2448 10.2926 20.5817 10.4322 20.9331 10.4322C21.2844 10.4322 21.6213 10.2926 21.8697 10.0442C22.1182 9.7958 22.2577 9.45886 22.2577 9.10754C22.2577 8.75621 22.1182 8.41928 21.8697 8.17085C21.6213 7.92243 21.2844 7.78286 20.9331 7.78286ZM15.0387 9.33185C14.294 9.33193 13.5566 9.47868 12.8687 9.76374C12.1807 10.0488 11.5556 10.4666 11.0291 10.9932C9.96578 12.0568 9.36849 13.4992 9.36866 15.0031C9.36882 16.5071 9.96642 17.9494 11.03 19.0127C12.0936 20.0761 13.536 20.6734 15.0399 20.6732C16.5439 20.673 17.9862 20.0754 19.0495 19.0118C20.1129 17.9483 20.7102 16.5058 20.71 15.0019C20.7098 13.4979 20.1122 12.0556 19.0487 10.9923C17.9851 9.92897 16.5427 9.33168 15.0387 9.33185ZM15.0387 11.322C19.905 11.322 19.9112 18.6843 15.0387 18.6843C10.1737 18.6843 10.1662 11.322 15.0387 11.322Z" fill="white"/>
<defs>
<linearGradient id="paint0_linear_332_16744" x1="2.01386" y1="28.0455" x2="29.8101" y2="3.98816" gradientUnits="userSpaceOnUse">
<stop stop-color="#FFDD55"/>
<stop offset="0.5" stop-color="#FF543E"/>
<stop offset="1" stop-color="#C837AB"/>
</linearGradient>
</defs>
</svg>
