<svg width="206" height="50" viewBox="0 0 206 50" fill="none" xmlns="http://www.w3.org/2000/svg">
<path d="M118.776 42.9206C118.776 43.294 118.88 43.4976 119.122 43.4976C119.295 43.4976 119.433 43.4298 119.606 43.3279L181.97 3.51562C183.076 2.80286 184.079 2.42952 185.565 2.42952H199.29C201.399 2.42952 202.816 3.82108 202.816 5.89146V31.5845C202.816 34.6731 202.124 36.4719 199.29 38.135L182.662 47.9439C182.454 48.0796 182.247 48.1475 182.108 48.1475C181.901 48.1475 181.728 48.0117 181.728 47.4347V17.4313C181.728 17.0919 181.624 16.8543 181.382 16.8543C181.21 16.8543 181.071 16.9222 180.899 17.024L135.301 46.1111C134.022 46.9256 132.984 47.1632 131.809 47.1632H101.56C99.4516 47.1632 98.0342 45.7717 98.0342 43.7013V6.70603C98.0342 6.43451 97.896 6.19692 97.6886 6.19692C97.5157 6.19692 97.3774 6.26481 97.2046 6.36663L67.1287 24.1176C66.8176 24.2873 66.7484 24.457 66.7484 24.5927C66.7484 24.7285 66.783 24.8303 67.025 25.034L88.4929 46.1111C88.7695 46.3826 88.9769 46.6202 88.9769 46.8238C88.9769 47.0614 88.6658 47.1972 88.2855 47.1972H68.8572C67.3361 47.1972 66.1607 46.9596 65.331 46.145L52.2982 33.3494C52.1599 33.2136 52.0562 33.1458 51.9179 33.1458C51.8142 33.1458 51.6413 33.2136 51.5031 33.2815L29.724 46.145C28.4103 46.9256 27.5115 47.1632 26.1978 47.1632H6.14723C4.03846 47.1632 2.62109 45.7717 2.62109 43.7013V18.4834C2.62109 15.3609 3.3125 13.596 6.14723 11.9329L22.8791 2.05617C23.052 1.95435 23.1902 1.92041 23.3285 1.92041C23.5705 1.92041 23.7088 2.19194 23.7088 2.73498V36.4719C23.7088 36.8113 23.8125 36.981 24.0545 36.981C24.1928 36.981 24.3656 36.8792 24.5385 36.7774L81.0604 3.4138C82.4086 2.63316 83.2383 2.39558 84.7939 2.39558H115.216C117.324 2.39558 118.742 3.78714 118.742 5.85752L118.776 42.9206Z" fill="#fdc82a"/>
</svg>
