<svg width="196" height="42" viewBox="0 0 196 42" fill="none" xmlns="http://www.w3.org/2000/svg">
<g clip-path="url(#clip0_209_692)">
<path fill-rule="evenodd" clip-rule="evenodd" d="M73.8279 3.03733C74.996 3.13007 76.1005 3.41911 77.1136 3.86953C75.6282 4.60056 74.2016 5.56885 73.1753 6.88398L73.0503 7.04416C72.2187 7.03934 71.3714 7.20915 70.5638 7.57286C70.3896 7.65114 70.2225 7.73545 70.0603 7.82698C70.1588 6.24328 70.7573 4.69811 71.5109 3.31794L71.6286 3.10237C72.3437 3.00241 73.0792 2.97712 73.8279 3.03733ZM69.868 24.6961V35.334H61.0818V14.2136C61.5469 19.232 65.0993 23.3954 69.868 24.6961ZM61.0818 11.9747V3H66.5018C63.5022 4.95343 61.4279 8.21236 61.0818 11.9747ZM82.7872 15.5432L84.3255 15.7973L84.0983 17.5195C83.995 18.3059 83.9866 18.4071 83.5876 19.1116C81.7897 22.2862 78.6398 24.495 75.0465 25.108C74.4696 25.2067 74.4011 25.1851 73.8363 25.0743L71.7212 24.6985L71.9279 23.1401C72.2175 21.4841 75.8757 20.2461 77.3371 19.2055C78.8093 18.1566 80.9388 15.2963 82.7872 15.5432ZM70.9881 8.52188C73.507 7.39101 76.4634 8.52067 77.5919 11.0438C78.7204 13.568 77.5943 16.5307 75.0753 17.6616C72.5564 18.7925 69.6012 17.6628 68.4715 15.1397C67.3431 12.6166 68.4691 9.65275 70.9881 8.52188ZM74.7833 17.01C74.4204 17.1726 73.9937 17.01 73.8315 16.6463C73.6693 16.2826 73.8315 15.8563 74.1944 15.6937C74.5574 15.5299 74.984 15.6937 75.1462 16.0574C75.3085 16.4211 75.1463 16.8475 74.7833 17.01ZM71.8678 10.491C71.5048 10.6536 71.0782 10.491 70.916 10.1273C70.7525 9.76355 70.916 9.33721 71.2789 9.17342C71.6418 9.01084 72.0685 9.17342 72.2307 9.53713C72.3942 9.90084 72.2307 10.3284 71.8678 10.491ZM70.0723 15.2108C69.7094 15.3745 69.2828 15.212 69.1205 14.8483C68.9571 14.4845 69.1205 14.057 69.4834 13.8944C69.8464 13.7306 70.273 13.8944 70.4353 14.2569C70.5975 14.6206 70.4353 15.0482 70.0723 15.2108ZM76.5776 12.2902C76.2146 12.4528 75.788 12.2902 75.6258 11.9265C75.4623 11.5628 75.6258 11.1365 75.9887 10.9727C76.3516 10.8101 76.7783 10.9727 76.9405 11.3364C77.104 11.7001 76.9405 12.1265 76.5788 12.2902H76.5776ZM72.1586 11.1425C73.2342 10.6596 74.4949 11.1425 74.9768 12.218C75.4587 13.2959 74.9768 14.5592 73.9036 15.0422C72.8292 15.5239 71.5673 15.0422 71.0866 13.9655C70.6047 12.8888 71.0866 11.6255 72.1598 11.1425H72.1586ZM77.7481 4.17904C79.4498 5.0847 80.8499 6.46126 81.7909 8.12324C80.1685 7.82939 78.4524 7.76194 76.854 8.20875L76.6629 8.26174C75.8048 7.61622 74.7881 7.20915 73.7233 7.0839C74.7292 5.85668 76.1197 4.95705 77.5366 4.28021L77.7469 4.17904H77.7481ZM82.1166 8.7495C82.8545 10.2983 83.209 12.0554 83.0636 13.8896C83.0528 14.0209 83.0408 14.1497 83.0251 14.2786C81.8907 13.0887 80.5495 12.0265 79.0016 11.4448L78.8177 11.375C78.742 11.1208 78.6494 10.8679 78.5377 10.6186C78.2036 9.87194 77.7361 9.22642 77.1773 8.69651C78.7131 8.30751 80.3656 8.40988 81.9063 8.70855L82.1166 8.7495ZM82.9194 14.9759L82.9146 15.0024L82.8653 14.994H82.8557C81.6311 14.8314 80.4353 15.713 79.558 16.4669C79.5388 16.4825 79.5207 16.4994 79.5027 16.5151C79.314 16.0815 79.0929 15.6612 78.8345 15.2662L78.724 15.0939C79.0641 14.1269 79.159 13.0707 78.9727 12.0277C80.4449 12.6214 81.7188 13.6813 82.7896 14.835L82.9194 14.9759ZM79.0665 16.9065C78.7636 17.1847 78.4668 17.4701 78.1675 17.7531C77.8058 18.0951 77.4188 18.4649 77.0138 18.7539C76.8227 18.8888 76.598 19.0261 76.3492 19.167C76.4153 18.8671 76.4658 18.5636 76.4983 18.2577L76.5235 18.0265C77.372 17.4243 78.0305 16.6234 78.4656 15.719C78.6987 16.0971 78.897 16.4958 79.0665 16.9077V16.9065ZM75.6907 19.5211C73.9541 20.4243 71.6551 21.4841 71.3811 23.0426C70.4893 22.8956 69.6397 22.6319 68.8489 22.2694C70.3199 21.548 71.732 20.5917 72.7523 19.2947L72.8749 19.1393C73.751 19.1634 74.6463 18.9948 75.4996 18.6118C75.645 18.5468 75.788 18.4757 75.925 18.3998C75.8745 18.778 75.794 19.1525 75.6907 19.5211ZM68.2204 21.9538C66.5727 21.0554 65.2135 19.7114 64.2905 18.0963C65.8985 18.3589 67.5906 18.3974 69.1626 17.9362L69.3452 17.882C70.1805 18.5251 71.1695 18.9394 72.2091 19.0839C71.1972 20.3111 69.8007 21.2071 68.3778 21.8792L68.2204 21.9538ZM63.9649 17.4761C63.2125 15.9177 62.8508 14.1449 62.9974 12.2951C63.0058 12.1927 63.0155 12.0927 63.0263 11.9928C64.1716 13.1646 65.52 14.2051 67.0691 14.7676L67.2517 14.8338C67.3262 15.0807 67.4164 15.324 67.5233 15.5648C67.8502 16.2947 68.3021 16.9269 68.8441 17.4484C67.3094 17.8603 65.6534 17.7796 64.1043 17.5002L63.9649 17.4749V17.4761ZM63.126 11.2955C63.4649 9.40345 64.3242 7.71016 65.5404 6.35407C65.7916 7.97511 66.2819 9.60939 67.2133 10.9703L67.3226 11.1305C66.9922 12.0963 66.9032 13.1477 67.0931 14.1847C65.6149 13.6078 64.3266 12.5624 63.2438 11.4207L63.126 11.2955ZM66.0271 5.84825C67.3659 4.54878 69.0592 3.62505 70.9304 3.22521C70.1516 4.69209 69.5592 6.31794 69.4967 7.98956L69.4895 8.1931C68.6494 8.80249 67.9993 9.60578 67.5738 10.5126C66.7061 9.17945 66.2675 7.57768 66.05 6.01686L66.0271 5.84825Z" fill="#FEC80A"/>
<path fill-rule="evenodd" clip-rule="evenodd" d="M1.50704 38.9675H0.991471L0.463888 38.1787C0.453072 38.163 0.437449 38.1293 0.415817 38.0787H0.409808V38.9687H0V37.1514H0.408606V38.01H0.414615C0.425431 37.986 0.442256 37.9522 0.46509 37.9089L0.966234 37.1514H1.45296L0.820818 38.0185L1.50704 38.9687V38.9675ZM5.06672 39C4.80713 39 4.59562 38.9145 4.43097 38.7459C4.26753 38.5761 4.18581 38.3557 4.18581 38.0835C4.18581 37.7969 4.26873 37.5644 4.43458 37.3874C4.60043 37.2104 4.82035 37.1212 5.09436 37.1212C5.35394 37.1212 5.56305 37.2068 5.72289 37.3766C5.88273 37.5464 5.96205 37.7704 5.96205 38.0474C5.96205 38.3244 5.87912 38.5628 5.71328 38.7375C5.54863 38.9121 5.33231 39 5.06552 39H5.06672ZM5.08354 37.4729C4.94053 37.4729 4.82636 37.5271 4.74224 37.6343C4.65811 37.7415 4.61605 37.8836 4.61605 38.0618C4.61605 38.2401 4.65811 38.3846 4.74224 38.4894C4.82636 38.5941 4.93692 38.6459 5.07273 38.6459C5.20853 38.6459 5.3251 38.5954 5.40802 38.4942C5.48975 38.3918 5.53181 38.2509 5.53181 38.0703C5.53181 37.8896 5.49215 37.7355 5.41163 37.6307C5.33111 37.5259 5.22175 37.4729 5.08234 37.4729H5.08354ZM10.4038 38.9675H9.93514L9.65392 38.5002C9.63229 38.4641 9.61186 38.4328 9.59263 38.4051C9.5734 38.3774 9.55418 38.3533 9.53374 38.334C9.51452 38.3135 9.49288 38.2991 9.47125 38.2882C9.44962 38.2774 9.42558 38.2726 9.40155 38.2726H9.29098V38.9675H8.88238V37.1501H9.53014C9.96999 37.1501 10.1899 37.3151 10.1899 37.6439C10.1899 37.7078 10.1803 37.7656 10.1611 37.8198C10.1418 37.874 10.1142 37.9221 10.0794 37.9655C10.0445 38.0088 10.0012 38.045 9.95076 38.0775C9.90029 38.1088 9.84501 38.1329 9.78251 38.151V38.1558C9.81015 38.1642 9.83539 38.1774 9.86183 38.1967C9.88707 38.216 9.9111 38.2377 9.93514 38.263C9.95797 38.2882 9.98081 38.3159 10.0024 38.3449C10.0241 38.3738 10.0433 38.4027 10.0613 38.4304L10.4038 38.9675ZM9.29098 37.4573V37.9631H9.46765C9.55538 37.9631 9.62628 37.9378 9.67916 37.8872C9.73324 37.8354 9.75968 37.7716 9.75968 37.6957C9.75968 37.5367 9.66474 37.4573 9.47486 37.4573H9.29098ZM14.2808 38.9675H13.1932V37.1501H14.2387V37.4837H13.6018V37.8884H14.1943V38.2196H13.6018V38.6351H14.2808V38.9675ZM18.7851 38.9675H18.3404L18.2118 38.564H17.5665L17.4391 38.9675H16.9968L17.6578 37.1501H18.1421L18.7863 38.9675H18.7851ZM18.1181 38.2497L17.9234 37.6391C17.909 37.5933 17.8982 37.5391 17.8921 37.4765H17.8825C17.8777 37.5295 17.8681 37.5825 17.8513 37.6343L17.6542 38.2497H18.1181ZM23.2629 38.9675H22.8507L22.1032 37.8258C22.0599 37.7595 22.0287 37.709 22.0119 37.6752H22.0071C22.0131 37.7391 22.0167 37.8378 22.0167 37.9691V38.9675H21.6309V37.1501H22.0707L22.7894 38.2557C22.8219 38.3063 22.8519 38.3545 22.8807 38.4039H22.8856C22.8795 38.3617 22.8747 38.2786 22.8747 38.1546V37.1501H23.2605V38.9675H23.2629ZM28.3561 38.8976V38.4918C28.4294 38.5544 28.5099 38.6002 28.5952 38.6303C28.6806 38.6604 28.7683 38.6772 28.8548 38.6772C28.9065 38.6772 28.9522 38.6724 28.9894 38.6628C29.0279 38.6532 29.0603 38.6411 29.0856 38.6243C29.112 38.6074 29.1312 38.5881 29.1432 38.5664C29.1565 38.5436 29.1625 38.5195 29.1625 38.4942C29.1625 38.4581 29.1529 38.4267 29.1324 38.399C29.112 38.3713 29.0844 38.3449 29.0495 38.322C29.0146 38.2979 28.9726 38.275 28.9245 38.2533C28.8764 38.2316 28.8248 38.2088 28.7695 38.1859C28.6277 38.1269 28.5219 38.0546 28.4522 37.9691C28.3825 37.8836 28.3489 37.7812 28.3489 37.6596C28.3489 37.5644 28.3669 37.4837 28.4053 37.4163C28.4438 37.3477 28.4955 37.2923 28.5604 37.2477C28.6265 37.2043 28.7022 37.1718 28.7875 37.1501C28.8728 37.1297 28.9642 37.1188 29.0603 37.1188C29.1565 37.1188 29.2382 37.1249 29.3115 37.1369C29.3836 37.1477 29.4509 37.1658 29.5134 37.1899V37.5693C29.4833 37.5476 29.4497 37.5295 29.4136 37.5139C29.3776 37.4982 29.3403 37.4837 29.3031 37.4729C29.2658 37.4621 29.2274 37.4548 29.1901 37.45C29.1529 37.4452 29.1168 37.4428 29.0831 37.4428C29.0363 37.4428 28.9942 37.4476 28.957 37.4561C28.9185 37.4645 28.8873 37.4777 28.8608 37.4934C28.8356 37.509 28.8152 37.5283 28.8007 37.5512C28.7863 37.5741 28.7791 37.5982 28.7791 37.6259C28.7791 37.656 28.7875 37.6837 28.8031 37.7078C28.8188 37.7318 28.8416 37.7559 28.8716 37.7764C28.9017 37.7981 28.9365 37.8186 28.9786 37.839C29.0207 37.8595 29.0687 37.8812 29.1216 37.9029C29.1937 37.933 29.2586 37.9655 29.3163 37.9992C29.374 38.0329 29.4233 38.0715 29.4641 38.1148C29.505 38.1582 29.5374 38.2076 29.5591 38.263C29.5807 38.3171 29.5915 38.3822 29.5915 38.4556C29.5915 38.5568 29.5723 38.6423 29.5338 38.711C29.4954 38.7796 29.4437 38.8362 29.3776 38.8784C29.3127 38.9205 29.2358 38.9518 29.148 38.9711C29.0603 38.9892 28.969 38.9988 28.8716 38.9988C28.7743 38.9988 28.6782 38.9904 28.588 38.9735C28.4979 38.9567 28.4198 38.9314 28.3537 38.8976H28.3561ZM32.9192 38.3412V38.9663H32.5106V37.1489H33.1512C33.6079 37.1489 33.8362 37.3416 33.8362 37.7282C33.8362 37.9113 33.7701 38.0582 33.6391 38.1714C33.5081 38.2834 33.3339 38.34 33.1139 38.34H32.9192V38.3412ZM32.9192 37.4645V38.0305H33.0803C33.2978 38.0305 33.406 37.9354 33.406 37.7439C33.406 37.5524 33.2966 37.4645 33.0803 37.4645H32.9192ZM38.3164 38.9675H37.8718L37.7432 38.564H37.099L36.9705 38.9675H36.5282L37.1892 37.1501H37.6735L38.3189 38.9675H38.3164ZM37.6495 38.2497L37.4548 37.6391C37.4403 37.5933 37.4307 37.5391 37.4247 37.4765H37.4151C37.4103 37.5295 37.3995 37.5825 37.3827 37.6343L37.1856 38.2497H37.6495ZM42.6837 38.9675H42.215L41.9326 38.5002C41.911 38.4641 41.8918 38.4328 41.8725 38.4051C41.8533 38.3774 41.8329 38.3533 41.8136 38.334C41.7932 38.3135 41.7728 38.2991 41.7511 38.2882C41.7295 38.2774 41.7067 38.2726 41.6814 38.2726H41.5721V38.9675H41.1635V37.1501H41.8112C42.2511 37.1501 42.4722 37.3151 42.4722 37.6439C42.4722 37.7078 42.4626 37.7656 42.4422 37.8198C42.4229 37.874 42.3953 37.9221 42.3605 37.9655C42.3244 38.0088 42.2823 38.045 42.2319 38.0775C42.1814 38.1088 42.1249 38.1329 42.0636 38.151V38.1558C42.0913 38.1642 42.1165 38.1774 42.1417 38.1967C42.167 38.216 42.191 38.2377 42.215 38.263C42.2391 38.2882 42.2607 38.3159 42.2823 38.3449C42.304 38.3738 42.3232 38.4027 42.3412 38.4304L42.6837 38.9675ZM41.5709 37.4573V37.9631H41.7475C41.8353 37.9631 41.905 37.9378 41.9579 37.8872C42.0119 37.8354 42.0396 37.7716 42.0396 37.6957C42.0396 37.5367 41.9446 37.4573 41.7547 37.4573H41.5709ZM46.5607 38.9675H45.4731V37.1501H46.5186V37.4837H45.8817V37.8884H46.4742V38.2196H45.8817V38.6351H46.5607V38.9675Z" fill="white"/>
<path fill-rule="evenodd" clip-rule="evenodd" d="M52.024 38.3424V38.9674H51.6154V37.1501H52.2547C52.7114 37.1501 52.9397 37.3428 52.9397 37.7294C52.9397 37.9124 52.8736 38.0594 52.7426 38.1726C52.6116 38.2846 52.4362 38.3412 52.2175 38.3412H52.0228L52.024 38.3424ZM52.024 37.4656V38.0317H52.185C52.4025 38.0317 52.5107 37.9365 52.5107 37.745C52.5107 37.5536 52.4025 37.4656 52.185 37.4656H52.024ZM57.4212 38.9687H56.9765L56.8479 38.5652H56.2038L56.0764 38.9687H55.6341L56.2939 37.1513H56.7782L57.4224 38.9687H57.4212ZM56.753 38.2509L56.5583 37.6403C56.5439 37.5945 56.5343 37.5403 56.5282 37.4777H56.5186C56.5138 37.5307 56.5042 37.5837 56.4874 37.6355L56.2903 38.2509H56.7542H56.753ZM61.7885 38.9687H61.3198L61.0385 38.5014C61.0169 38.4652 60.9965 38.4339 60.9772 38.4062C60.958 38.3785 60.9388 38.3544 60.9184 38.3352C60.8979 38.3147 60.8775 38.3002 60.8559 38.2894C60.8342 38.2786 60.8102 38.2738 60.7862 38.2738H60.6756V38.9687H60.267V37.1513H60.9148C61.3546 37.1513 61.5745 37.3163 61.5745 37.6451C61.5745 37.7089 61.5649 37.7667 61.5457 37.8209C61.5265 37.8751 61.4988 37.9233 61.464 37.9666C61.4291 38.01 61.3859 38.0461 61.3354 38.0786C61.2849 38.11 61.2296 38.134 61.1671 38.1521V38.1569C61.1948 38.1654 61.22 38.1786 61.2464 38.1979C61.2717 38.2171 61.2957 38.2388 61.3198 38.2641C61.3438 38.2894 61.3654 38.3171 61.3871 38.346C61.4087 38.3749 61.4279 38.4038 61.4459 38.4315L61.7885 38.9687ZM60.6756 37.4584V37.9642H60.8523C60.94 37.9642 61.0109 37.9389 61.0638 37.8884C61.1179 37.8366 61.1455 37.7727 61.1455 37.6969C61.1455 37.5379 61.0506 37.4584 60.8607 37.4584H60.6756ZM65.8505 37.4849H65.3337V38.9687H64.9239V37.4849H64.4095V37.1513H65.8505V37.4849ZM68.6314 38.8988V38.4929C68.7047 38.5556 68.7852 38.6013 68.8706 38.6314C68.9571 38.6615 69.0436 38.6784 69.1313 38.6784C69.183 38.6784 69.2287 38.6736 69.2659 38.664C69.3044 38.6543 69.3356 38.6423 69.3621 38.6254C69.3873 38.6086 69.4066 38.5893 69.4198 38.5676C69.433 38.5447 69.439 38.5206 69.439 38.4953C69.439 38.4592 69.4294 38.4279 69.409 38.4002C69.3885 38.3725 69.3609 38.346 69.326 38.3231C69.2912 38.299 69.2491 38.2762 69.201 38.2545C69.153 38.2328 69.1013 38.2099 69.046 38.187C68.9042 38.128 68.7985 38.0558 68.7287 37.9703C68.659 37.8847 68.6254 37.7824 68.6254 37.6607C68.6254 37.5656 68.6434 37.4849 68.6819 37.4175C68.7203 37.3488 68.772 37.2934 68.8369 37.2489C68.903 37.2055 68.9787 37.173 69.064 37.1513C69.1506 37.1308 69.2407 37.12 69.3369 37.12C69.433 37.12 69.5147 37.126 69.588 37.1381C69.6601 37.1489 69.7274 37.167 69.7899 37.1911V37.5704C69.7599 37.5487 69.7262 37.5307 69.6902 37.515C69.6541 37.4994 69.6169 37.4849 69.5796 37.4741C69.5424 37.4632 69.5039 37.456 69.4666 37.4512C69.4294 37.4464 69.3933 37.444 69.3597 37.444C69.3128 37.444 69.272 37.4488 69.2335 37.4572C69.195 37.4656 69.1638 37.4789 69.1374 37.4945C69.1121 37.5102 69.0917 37.5295 69.0761 37.5524C69.0616 37.5752 69.0544 37.5993 69.0544 37.627C69.0544 37.6571 69.0628 37.6848 69.0785 37.7089C69.0941 37.733 69.1169 37.7571 69.147 37.7776C69.1758 37.7992 69.2119 37.8197 69.2551 37.8402C69.2972 37.8607 69.3453 37.8823 69.3981 37.904C69.4715 37.9341 69.5351 37.9666 69.594 38.0004C69.6517 38.0341 69.701 38.0726 69.7419 38.116C69.7827 38.1593 69.8152 38.2087 69.8368 38.2641C69.8584 38.3183 69.8692 38.3833 69.8692 38.4568C69.8692 38.558 69.85 38.6435 69.8116 38.7121C69.7731 38.7808 69.7214 38.8374 69.6553 38.8795C69.5892 38.9217 69.5135 38.953 69.4258 38.9723C69.3381 38.9903 69.2455 39 69.1494 39C69.0532 39 68.9559 38.9915 68.8658 38.9747C68.7756 38.9578 68.6975 38.9325 68.6326 38.8988H68.6314Z" fill="#FEC80A"/>
<path fill-rule="evenodd" clip-rule="evenodd" d="M59.1398 24.3252C59.1398 30.4059 54.2209 35.334 48.1531 35.334H36.7025V26.5291H47.1604C49.6433 26.4388 50.088 24.2734 49.975 23.169C49.6986 20.4737 45.9142 17.5821 44.0454 15.7407C41.4243 13.1586 38.9222 10.2104 38.6506 6.27098C38.5545 5.08952 38.6879 3.99839 39.0015 3H47.8599C44.5694 9.66359 59.1386 13.3175 59.1386 24.3252H59.1398Z" fill="white"/>
<path fill-rule="evenodd" clip-rule="evenodd" d="M33.8603 3L21.0601 19.167L34.7291 35.334H24.1991L10.53 19.167L23.3302 3H33.8603Z" fill="white"/>
<path fill-rule="evenodd" clip-rule="evenodd" d="M0 19.167L13.6703 35.334H0V19.167L12.8002 3H0V19.167Z" fill="white"/>
</g>
<path d="M94.5243 11L96.7943 3.8H98.5593L100.829 11H99.5893L97.5293 4.54H97.7993L95.7643 11H94.5243ZM95.7893 9.44V8.315H99.5693V9.44H95.7893ZM101.733 11V3.8H104.588C105.075 3.8 105.473 3.89833 105.783 4.095C106.097 4.28833 106.328 4.53667 106.478 4.84C106.632 5.14333 106.708 5.45667 106.708 5.78C106.708 6.17667 106.613 6.51333 106.423 6.79C106.237 7.06667 105.982 7.25333 105.658 7.35V7.1C106.112 7.20333 106.455 7.41833 106.688 7.745C106.925 8.07167 107.043 8.44333 107.043 8.86C107.043 9.28667 106.962 9.66 106.798 9.98C106.635 10.3 106.392 10.55 106.068 10.73C105.748 10.91 105.352 11 104.878 11H101.733ZM102.953 9.865H104.728C104.938 9.865 105.127 9.82333 105.293 9.74C105.46 9.65333 105.59 9.53333 105.683 9.38C105.78 9.22333 105.828 9.03833 105.828 8.825C105.828 8.63167 105.787 8.45833 105.703 8.305C105.62 8.15167 105.498 8.03 105.338 7.94C105.178 7.84667 104.987 7.8 104.763 7.8H102.953V9.865ZM102.953 6.675H104.573C104.747 6.675 104.902 6.64167 105.038 6.575C105.175 6.50833 105.283 6.41 105.363 6.28C105.443 6.15 105.483 5.99 105.483 5.8C105.483 5.55 105.403 5.34167 105.243 5.175C105.083 5.00833 104.86 4.925 104.573 4.925H102.953V6.675ZM109.577 11V4.93H107.247V3.8H113.112V4.93H110.782V11H109.577ZM116.956 11.15C116.236 11.15 115.619 10.9933 115.106 10.68C114.593 10.3633 114.198 9.92333 113.921 9.36C113.648 8.79667 113.511 8.14333 113.511 7.4C113.511 6.65667 113.648 6.00333 113.921 5.44C114.198 4.87667 114.593 4.43833 115.106 4.125C115.619 3.80833 116.236 3.65 116.956 3.65C117.676 3.65 118.293 3.80833 118.806 4.125C119.323 4.43833 119.718 4.87667 119.991 5.44C120.268 6.00333 120.406 6.65667 120.406 7.4C120.406 8.14333 120.268 8.79667 119.991 9.36C119.718 9.92333 119.323 10.3633 118.806 10.68C118.293 10.9933 117.676 11.15 116.956 11.15ZM116.956 10.015C117.439 10.0183 117.841 9.91167 118.161 9.695C118.484 9.47833 118.726 9.17333 118.886 8.78C119.049 8.38667 119.131 7.92667 119.131 7.4C119.131 6.87333 119.049 6.41667 118.886 6.03C118.726 5.64 118.484 5.33667 118.161 5.12C117.841 4.90333 117.439 4.79167 116.956 4.785C116.473 4.78167 116.071 4.88833 115.751 5.105C115.431 5.32167 115.189 5.62667 115.026 6.02C114.866 6.41333 114.786 6.87333 114.786 7.4C114.786 7.92667 114.866 8.385 115.026 8.775C115.186 9.16167 115.426 9.46333 115.746 9.68C116.069 9.89667 116.473 10.0083 116.956 10.015ZM123.951 11.15C123.445 11.15 123.001 11.0767 122.621 10.93C122.245 10.78 121.928 10.5883 121.671 10.355C121.418 10.1183 121.223 9.87 121.086 9.61L122.116 8.91C122.196 9.09333 122.313 9.27 122.466 9.44C122.62 9.60667 122.821 9.745 123.071 9.855C123.321 9.96167 123.631 10.015 124.001 10.015C124.358 10.015 124.65 9.96167 124.876 9.855C125.103 9.74833 125.27 9.60833 125.376 9.435C125.483 9.26167 125.536 9.07333 125.536 8.87C125.536 8.61667 125.466 8.42167 125.326 8.285C125.186 8.145 125.003 8.04833 124.776 7.995C124.55 7.93833 124.308 7.90667 124.051 7.9C123.818 7.89333 123.65 7.88833 123.546 7.885C123.443 7.88167 123.375 7.88 123.341 7.88C123.308 7.88 123.276 7.88 123.246 7.88V6.74C123.283 6.74 123.345 6.74 123.431 6.74C123.521 6.74 123.613 6.74 123.706 6.74C123.803 6.73667 123.881 6.73333 123.941 6.73C124.321 6.71333 124.633 6.625 124.876 6.465C125.123 6.305 125.246 6.06833 125.246 5.755C125.246 5.45167 125.131 5.21333 124.901 5.04C124.675 4.86667 124.373 4.78 123.996 4.78C123.643 4.78 123.331 4.85833 123.061 5.015C122.795 5.17167 122.593 5.35667 122.456 5.57L121.611 4.71C121.855 4.41333 122.185 4.16333 122.601 3.96C123.021 3.75333 123.498 3.65 124.031 3.65C124.345 3.65 124.65 3.69167 124.946 3.775C125.243 3.855 125.51 3.97833 125.746 4.145C125.983 4.31167 126.171 4.525 126.311 4.785C126.451 5.045 126.521 5.355 126.521 5.715C126.521 6.045 126.458 6.35 126.331 6.63C126.208 6.90667 126.035 7.13333 125.811 7.31C126.128 7.43667 126.373 7.63 126.546 7.89C126.723 8.15 126.811 8.47833 126.811 8.875C126.811 9.34167 126.685 9.745 126.431 10.085C126.178 10.425 125.835 10.6883 125.401 10.875C124.971 11.0583 124.488 11.15 123.951 11.15ZM127.395 11L129.665 3.8H131.43L133.7 11H132.46L130.4 4.54H130.67L128.635 11H127.395ZM128.66 9.44V8.315H132.44V9.44H128.66ZM134.604 11V3.8H140.439V11H139.234V4.93H135.809V11H134.604ZM145.991 11V7.8L146.186 8.11C145.989 8.27333 145.722 8.40167 145.386 8.495C145.049 8.585 144.691 8.63 144.311 8.63C143.704 8.63 143.221 8.51167 142.861 8.275C142.501 8.03833 142.241 7.71167 142.081 7.295C141.921 6.87833 141.841 6.39667 141.841 5.85V3.8H143.061V5.48C143.061 5.72667 143.074 5.97 143.101 6.21C143.131 6.44667 143.194 6.66167 143.291 6.855C143.391 7.04833 143.542 7.20333 143.746 7.32C143.949 7.43333 144.224 7.49 144.571 7.49C144.957 7.49 145.287 7.425 145.561 7.295C145.834 7.165 146.027 7.02667 146.141 6.88L145.991 7.485V3.8H147.201V11H145.991ZM148.099 11L150.369 3.8H152.134L154.404 11H153.164L151.104 4.54H151.374L149.339 11H148.099ZM149.364 9.44V8.315H153.144V9.44H149.364ZM158.157 11.15C157.437 11.15 156.821 10.9933 156.307 10.68C155.794 10.3633 155.399 9.92333 155.122 9.36C154.849 8.79667 154.712 8.14333 154.712 7.4C154.712 6.65667 154.849 6.00333 155.122 5.44C155.399 4.87667 155.794 4.43833 156.307 4.125C156.821 3.80833 157.437 3.65 158.157 3.65C158.987 3.65 159.679 3.85833 160.232 4.275C160.786 4.68833 161.174 5.24667 161.397 5.95L160.182 6.285C160.042 5.815 159.804 5.44833 159.467 5.185C159.131 4.91833 158.694 4.785 158.157 4.785C157.674 4.785 157.271 4.89333 156.947 5.11C156.627 5.32667 156.386 5.63167 156.222 6.025C156.062 6.415 155.981 6.87333 155.977 7.4C155.977 7.92667 156.057 8.38667 156.217 8.78C156.381 9.17 156.624 9.47333 156.947 9.69C157.271 9.90667 157.674 10.015 158.157 10.015C158.694 10.015 159.131 9.88167 159.467 9.615C159.804 9.34833 160.042 8.98167 160.182 8.515L161.397 8.85C161.174 9.55333 160.786 10.1133 160.232 10.53C159.679 10.9433 158.987 11.15 158.157 11.15ZM164.225 11V4.93H161.895V3.8H167.76V4.93H165.43V11H164.225ZM174.339 11H173.119V5.925L169.779 11H168.559V3.8H169.779V8.875L173.119 3.8H174.339V11ZM94.6393 26.2V23.87C94.8727 23.87 95.0677 23.8117 95.2243 23.695C95.381 23.5783 95.506 23.4167 95.5993 23.21C95.696 23.0033 95.771 22.7633 95.8243 22.49C95.8777 22.2133 95.9193 21.92 95.9493 21.61C95.986 21.2 96.0177 20.7983 96.0443 20.405C96.071 20.0083 96.096 19.5983 96.1193 19.175C96.146 18.7483 96.176 18.2867 96.2093 17.79L100.904 17.8V23.87H101.444V26.2H100.244V25H95.8443V26.2H94.6393ZM96.5143 23.87H99.6993V18.93L97.3093 18.92C97.286 19.27 97.266 19.5967 97.2493 19.9C97.236 20.2 97.2177 20.505 97.1943 20.815C97.1743 21.125 97.146 21.4633 97.1093 21.83C97.076 22.19 97.0393 22.49 96.9993 22.73C96.9627 22.97 96.9077 23.1783 96.8343 23.355C96.761 23.5283 96.6543 23.7 96.5143 23.87ZM102.044 25V23.99C102.204 24 102.339 23.9883 102.449 23.955C102.559 23.9183 102.651 23.85 102.724 23.75C102.801 23.6467 102.867 23.5017 102.924 23.315C102.981 23.125 103.036 22.8867 103.089 22.6C103.166 22.19 103.229 21.7633 103.279 21.32C103.332 20.8733 103.377 20.435 103.414 20.005C103.451 19.5717 103.479 19.165 103.499 18.785C103.519 18.405 103.536 18.0767 103.549 17.8H108.369V25H107.164V18.93H104.664C104.647 19.1533 104.627 19.4233 104.604 19.74C104.584 20.0533 104.556 20.3933 104.519 20.76C104.486 21.1267 104.442 21.5067 104.389 21.9C104.339 22.2933 104.277 22.68 104.204 23.06C104.137 23.4067 104.057 23.7183 103.964 23.995C103.871 24.2683 103.746 24.495 103.589 24.675C103.436 24.8517 103.234 24.97 102.984 25.03C102.737 25.09 102.424 25.08 102.044 25ZM114.97 25H113.765V22.485H111.91L111.395 22.44C110.782 22.34 110.327 22.08 110.03 21.66C109.734 21.2367 109.585 20.7317 109.585 20.145C109.585 19.7483 109.65 19.3883 109.78 19.065C109.914 18.7383 110.115 18.4683 110.385 18.255C110.659 18.0417 111.004 17.9033 111.42 17.84C111.514 17.8233 111.615 17.8133 111.725 17.81C111.835 17.8033 111.925 17.8 111.995 17.8H114.97V25ZM110.835 25H109.47L111.03 21.8L112.255 22.07L110.835 25ZM113.765 21.36V18.93H112.045C111.979 18.93 111.904 18.9333 111.82 18.94C111.737 18.9433 111.66 18.955 111.59 18.975C111.39 19.025 111.232 19.1133 111.115 19.24C111.002 19.3667 110.92 19.5117 110.87 19.675C110.824 19.835 110.8 19.9917 110.8 20.145C110.8 20.2983 110.824 20.455 110.87 20.615C110.92 20.775 111.002 20.9183 111.115 21.045C111.232 21.1717 111.39 21.26 111.59 21.31C111.66 21.33 111.737 21.3433 111.82 21.35C111.904 21.3567 111.979 21.36 112.045 21.36H113.765ZM118.374 25V17.8H119.579V21.14L122.454 17.8H123.934L120.839 21.33L124.144 25H122.614L119.579 21.64V25H118.374ZM127.513 25.15C126.793 25.15 126.176 24.9933 125.663 24.68C125.149 24.3633 124.754 23.9233 124.478 23.36C124.204 22.7967 124.068 22.1433 124.068 21.4C124.068 20.6567 124.204 20.0033 124.478 19.44C124.754 18.8767 125.149 18.4383 125.663 18.125C126.176 17.8083 126.793 17.65 127.513 17.65C128.233 17.65 128.849 17.8083 129.363 18.125C129.879 18.4383 130.274 18.8767 130.548 19.44C130.824 20.0033 130.963 20.6567 130.963 21.4C130.963 22.1433 130.824 22.7967 130.548 23.36C130.274 23.9233 129.879 24.3633 129.363 24.68C128.849 24.9933 128.233 25.15 127.513 25.15ZM127.513 24.015C127.996 24.0183 128.398 23.9117 128.718 23.695C129.041 23.4783 129.283 23.1733 129.443 22.78C129.606 22.3867 129.688 21.9267 129.688 21.4C129.688 20.8733 129.606 20.4167 129.443 20.03C129.283 19.64 129.041 19.3367 128.718 19.12C128.398 18.9033 127.996 18.7917 127.513 18.785C127.029 18.7817 126.628 18.8883 126.308 19.105C125.988 19.3217 125.746 19.6267 125.583 20.02C125.423 20.4133 125.343 20.8733 125.343 21.4C125.343 21.9267 125.423 22.385 125.583 22.775C125.743 23.1617 125.983 23.4633 126.303 23.68C126.626 23.8967 127.029 24.0083 127.513 24.015ZM131.958 25V17.8H134.933C135.003 17.8 135.093 17.8033 135.203 17.81C135.313 17.8133 135.415 17.8233 135.508 17.84C135.925 17.9033 136.268 18.0417 136.538 18.255C136.811 18.4683 137.013 18.7383 137.143 19.065C137.276 19.3883 137.343 19.7483 137.343 20.145C137.343 20.5383 137.276 20.8983 137.143 21.225C137.01 21.5483 136.806 21.8167 136.533 22.03C136.263 22.2433 135.921 22.3817 135.508 22.445C135.415 22.4583 135.311 22.4683 135.198 22.475C135.088 22.4817 135 22.485 134.933 22.485H133.163V25H131.958ZM133.163 21.36H134.883C134.95 21.36 135.025 21.3567 135.108 21.35C135.191 21.3433 135.268 21.33 135.338 21.31C135.538 21.26 135.695 21.1717 135.808 21.045C135.925 20.9183 136.006 20.775 136.053 20.615C136.103 20.455 136.128 20.2983 136.128 20.145C136.128 19.9917 136.103 19.835 136.053 19.675C136.006 19.5117 135.925 19.3667 135.808 19.24C135.695 19.1133 135.538 19.025 135.338 18.975C135.268 18.955 135.191 18.9433 135.108 18.94C135.025 18.9333 134.95 18.93 134.883 18.93H133.163V21.36ZM138.345 25V17.8H142.995V18.93H139.55V20.705H142.395V21.835H139.55V23.87H142.995V25H138.345ZM144.194 25V17.8H145.414V22.875L148.754 17.8H149.974V25H148.754V19.925L145.414 25H144.194ZM147.079 17.19C146.799 17.19 146.544 17.1217 146.314 16.985C146.088 16.8483 145.906 16.6667 145.769 16.44C145.633 16.21 145.564 15.955 145.564 15.675H146.504C146.504 15.835 146.559 15.9717 146.669 16.085C146.783 16.195 146.919 16.25 147.079 16.25C147.239 16.25 147.374 16.195 147.484 16.085C147.598 15.9717 147.654 15.835 147.654 15.675H148.594C148.594 15.955 148.526 16.21 148.389 16.44C148.253 16.6667 148.069 16.8483 147.839 16.985C147.609 17.1217 147.356 17.19 147.079 17.19ZM154.417 25.15C153.697 25.15 153.08 24.9933 152.567 24.68C152.054 24.3633 151.659 23.9233 151.382 23.36C151.109 22.7967 150.972 22.1433 150.972 21.4C150.972 20.6567 151.109 20.0033 151.382 19.44C151.659 18.8767 152.054 18.4383 152.567 18.125C153.08 17.8083 153.697 17.65 154.417 17.65C155.247 17.65 155.939 17.8583 156.492 18.275C157.045 18.6883 157.434 19.2467 157.657 19.95L156.442 20.285C156.302 19.815 156.064 19.4483 155.727 19.185C155.39 18.9183 154.954 18.785 154.417 18.785C153.934 18.785 153.53 18.8933 153.207 19.11C152.887 19.3267 152.645 19.6317 152.482 20.025C152.322 20.415 152.24 20.8733 152.237 21.4C152.237 21.9267 152.317 22.3867 152.477 22.78C152.64 23.17 152.884 23.4733 153.207 23.69C153.53 23.9067 153.934 24.015 154.417 24.015C154.954 24.015 155.39 23.8817 155.727 23.615C156.064 23.3483 156.302 22.9817 156.442 22.515L157.657 22.85C157.434 23.5533 157.045 24.1133 156.492 24.53C155.939 24.9433 155.247 25.15 154.417 25.15ZM158.755 25V17.8H159.96V21.14L162.835 17.8H164.315L161.22 21.33L164.525 25H162.995L159.96 21.64V25H158.755ZM171.009 25H169.789V19.925L166.449 25H165.229V17.8H166.449V22.875L169.789 17.8H171.009V25ZM171.807 25L174.247 21.36L171.877 17.8H173.352L174.992 20.335L176.617 17.8H178.102L175.732 21.36L178.162 25H176.687L174.992 22.385L173.292 25H171.807ZM94.5243 39L96.7943 31.8H98.5593L100.829 39H99.5893L97.5293 32.54H97.7993L95.7643 39H94.5243ZM95.7893 37.44V36.315H99.5693V37.44H95.7893ZM101.733 39V31.8H104.588C105.075 31.8 105.473 31.8983 105.783 32.095C106.097 32.2883 106.328 32.5367 106.478 32.84C106.632 33.1433 106.708 33.4567 106.708 33.78C106.708 34.1767 106.613 34.5133 106.423 34.79C106.237 35.0667 105.982 35.2533 105.658 35.35V35.1C106.112 35.2033 106.455 35.4183 106.688 35.745C106.925 36.0717 107.043 36.4433 107.043 36.86C107.043 37.2867 106.962 37.66 106.798 37.98C106.635 38.3 106.392 38.55 106.068 38.73C105.748 38.91 105.352 39 104.878 39H101.733ZM102.953 37.865H104.728C104.938 37.865 105.127 37.8233 105.293 37.74C105.46 37.6533 105.59 37.5333 105.683 37.38C105.78 37.2233 105.828 37.0383 105.828 36.825C105.828 36.6317 105.787 36.4583 105.703 36.305C105.62 36.1517 105.498 36.03 105.338 35.94C105.178 35.8467 104.987 35.8 104.763 35.8H102.953V37.865ZM102.953 34.675H104.573C104.747 34.675 104.902 34.6417 105.038 34.575C105.175 34.5083 105.283 34.41 105.363 34.28C105.443 34.15 105.483 33.99 105.483 33.8C105.483 33.55 105.403 33.3417 105.243 33.175C105.083 33.0083 104.86 32.925 104.573 32.925H102.953V34.675ZM109.577 39V32.93H107.247V31.8H113.112V32.93H110.782V39H109.577ZM116.956 39.15C116.236 39.15 115.619 38.9933 115.106 38.68C114.593 38.3633 114.198 37.9233 113.921 37.36C113.648 36.7967 113.511 36.1433 113.511 35.4C113.511 34.6567 113.648 34.0033 113.921 33.44C114.198 32.8767 114.593 32.4383 115.106 32.125C115.619 31.8083 116.236 31.65 116.956 31.65C117.676 31.65 118.293 31.8083 118.806 32.125C119.323 32.4383 119.718 32.8767 119.991 33.44C120.268 34.0033 120.406 34.6567 120.406 35.4C120.406 36.1433 120.268 36.7967 119.991 37.36C119.718 37.9233 119.323 38.3633 118.806 38.68C118.293 38.9933 117.676 39.15 116.956 39.15ZM116.956 38.015C117.439 38.0183 117.841 37.9117 118.161 37.695C118.484 37.4783 118.726 37.1733 118.886 36.78C119.049 36.3867 119.131 35.9267 119.131 35.4C119.131 34.8733 119.049 34.4167 118.886 34.03C118.726 33.64 118.484 33.3367 118.161 33.12C117.841 32.9033 117.439 32.7917 116.956 32.785C116.473 32.7817 116.071 32.8883 115.751 33.105C115.431 33.3217 115.189 33.6267 115.026 34.02C114.866 34.4133 114.786 34.8733 114.786 35.4C114.786 35.9267 114.866 36.385 115.026 36.775C115.186 37.1617 115.426 37.4633 115.746 37.68C116.069 37.8967 116.473 38.0083 116.956 38.015ZM121.401 39V31.8H122.486L124.976 36.9L127.466 31.8H128.551V39H127.426V34.385L125.216 39H124.736L122.531 34.385V39H121.401ZM133.001 39.15C132.281 39.15 131.664 38.9933 131.151 38.68C130.638 38.3633 130.243 37.9233 129.966 37.36C129.693 36.7967 129.556 36.1433 129.556 35.4C129.556 34.6567 129.693 34.0033 129.966 33.44C130.243 32.8767 130.638 32.4383 131.151 32.125C131.664 31.8083 132.281 31.65 133.001 31.65C133.721 31.65 134.338 31.8083 134.851 32.125C135.368 32.4383 135.763 32.8767 136.036 33.44C136.313 34.0033 136.451 34.6567 136.451 35.4C136.451 36.1433 136.313 36.7967 136.036 37.36C135.763 37.9233 135.368 38.3633 134.851 38.68C134.338 38.9933 133.721 39.15 133.001 39.15ZM133.001 38.015C133.484 38.0183 133.886 37.9117 134.206 37.695C134.529 37.4783 134.771 37.1733 134.931 36.78C135.094 36.3867 135.176 35.9267 135.176 35.4C135.176 34.8733 135.094 34.4167 134.931 34.03C134.771 33.64 134.529 33.3367 134.206 33.12C133.886 32.9033 133.484 32.7917 133.001 32.785C132.518 32.7817 132.116 32.8883 131.796 33.105C131.476 33.3217 131.234 33.6267 131.071 34.02C130.911 34.4133 130.831 34.8733 130.831 35.4C130.831 35.9267 130.911 36.385 131.071 36.775C131.231 37.1617 131.471 37.4633 131.791 37.68C132.114 37.8967 132.518 38.0083 133.001 38.015ZM137.446 39V31.8H142.261V32.93H138.651V34.48H140.421C140.488 34.48 140.576 34.4833 140.686 34.49C140.8 34.4933 140.903 34.5 140.996 34.51C141.4 34.5567 141.736 34.685 142.006 34.895C142.28 35.105 142.485 35.37 142.621 35.69C142.761 36.01 142.831 36.36 142.831 36.74C142.831 37.12 142.763 37.4717 142.626 37.795C142.49 38.115 142.285 38.38 142.011 38.59C141.741 38.7967 141.403 38.9233 140.996 38.97C140.903 38.98 140.801 38.9883 140.691 38.995C140.581 38.9983 140.491 39 140.421 39H137.446ZM138.651 37.87H140.371C140.438 37.87 140.513 37.8667 140.596 37.86C140.68 37.8533 140.756 37.8433 140.826 37.83C141.126 37.7667 141.333 37.6267 141.446 37.41C141.56 37.1933 141.616 36.97 141.616 36.74C141.616 36.5067 141.56 36.2833 141.446 36.07C141.333 35.8533 141.126 35.7133 140.826 35.65C140.756 35.6333 140.68 35.6233 140.596 35.62C140.513 35.6133 140.438 35.61 140.371 35.61H138.651V37.87ZM149.613 39H148.393V33.925L145.053 39H143.833V31.8H145.053V36.875L148.393 31.8H149.613V39ZM150.511 39V37.99C150.671 38 150.806 37.9883 150.916 37.955C151.026 37.9183 151.117 37.85 151.191 37.75C151.267 37.6467 151.334 37.5017 151.391 37.315C151.447 37.125 151.502 36.8867 151.556 36.6C151.632 36.19 151.696 35.7633 151.746 35.32C151.799 34.8733 151.844 34.435 151.881 34.005C151.917 33.5717 151.946 33.165 151.966 32.785C151.986 32.405 152.002 32.0767 152.016 31.8H156.836V39H155.631V32.93H153.131C153.114 33.1533 153.094 33.4233 153.071 33.74C153.051 34.0533 153.022 34.3933 152.986 34.76C152.952 35.1267 152.909 35.5067 152.856 35.9C152.806 36.2933 152.744 36.68 152.671 37.06C152.604 37.4067 152.524 37.7183 152.431 37.995C152.337 38.2683 152.212 38.495 152.056 38.675C151.902 38.8517 151.701 38.97 151.451 39.03C151.204 39.09 150.891 39.08 150.511 39ZM158.237 39V31.8H162.887V32.93H159.442V34.705H162.287V35.835H159.442V37.87H162.887V39H158.237ZM164.087 39V31.8H165.307V36.875L168.647 31.8H169.867V39H168.647V33.925L165.307 39H164.087ZM166.972 31.19C166.692 31.19 166.437 31.1217 166.207 30.985C165.98 30.8483 165.799 30.6667 165.662 30.44C165.525 30.21 165.457 29.955 165.457 29.675H166.397C166.397 29.835 166.452 29.9717 166.562 30.085C166.675 30.195 166.812 30.25 166.972 30.25C167.132 30.25 167.267 30.195 167.377 30.085C167.49 29.9717 167.547 29.835 167.547 29.675H168.487C168.487 29.955 168.419 30.21 168.282 30.44C168.145 30.6667 167.962 30.8483 167.732 30.985C167.502 31.1217 167.249 31.19 166.972 31.19Z" fill="white"/>
<defs>
<clipPath id="clip0_209_692">
<rect width="84.3243" height="36" fill="white" transform="translate(0 3)"/>
</clipPath>
</defs>
</svg>
