<svg width="50" height="50" viewBox="0 0 50 50" fill="none" xmlns="http://www.w3.org/2000/svg">
<path d="M41.6666 20.8332C41.6666 33.3332 24.9999 45.8332 24.9999 45.8332C24.9999 45.8332 8.33325 33.3332 8.33325 20.8332C8.33325 16.4129 10.0892 12.1737 13.2148 9.04806C16.3404 5.92245 20.5796 4.1665 24.9999 4.1665C29.4202 4.1665 33.6594 5.92245 36.785 9.04806C39.9106 12.1737 41.6666 16.4129 41.6666 20.8332Z" fill="black"/>
<path d="M25 27.0835C28.4518 27.0835 31.25 24.2853 31.25 20.8335C31.25 17.3817 28.4518 14.5835 25 14.5835C21.5482 14.5835 18.75 17.3817 18.75 20.8335C18.75 24.2853 21.5482 27.0835 25 27.0835Z" fill="white"/>
</svg>
