<?xml version="1.0" standalone="no"?>
<!DOCTYPE svg PUBLIC "-//W3C//DTD SVG 20010904//EN"
 "http://www.w3.org/TR/2001/REC-SVG-20010904/DTD/svg10.dtd">
<svg version="1.0" xmlns="http://www.w3.org/2000/svg"
 width="700.000000pt" height="700.000000pt" viewBox="0 0 700.000000 700.000000"
 preserveAspectRatio="xMidYMid meet">
<metadata>
Created by potrace 1.14, written by Peter Selinger 2001-2017
</metadata>
<g transform="translate(0.000000,700.000000) scale(0.100000,-0.100000)"
fill="#000000" stroke="none">
<path d="M210 5045 c0 -844 2 -1535 4 -1535 3 0 35 39 73 88 37 48 70 89 73
92 3 3 28 34 55 70 27 36 52 67 55 70 3 3 42 52 87 110 75 96 255 326 321 409
15 19 132 167 260 330 128 163 238 303 245 311 7 8 152 193 323 410 171 217
382 485 468 595 87 110 169 214 181 230 13 17 70 89 127 160 57 72 114 145
126 163 l23 32 -1210 0 -1211 0 0 -1535z"/>
<path d="M4588 6548 c-104 -132 -581 -733 -601 -758 -10 -13 -135 -170 -174
-220 -6 -8 -27 -33 -45 -56 -18 -22 -44 -55 -58 -74 -14 -18 -32 -41 -40 -50
-8 -10 -28 -35 -45 -56 -32 -41 -104 -132 -321 -404 -76 -96 -153 -193 -170
-216 -32 -41 -48 -62 -95 -118 -14 -17 -145 -182 -291 -366 -145 -184 -335
-424 -421 -533 l-157 -198 112 -132 c62 -73 162 -190 223 -262 137 -161 327
-385 380 -450 22 -26 45 -53 50 -59 6 -6 64 -74 129 -151 65 -77 137 -162 161
-190 58 -69 220 -260 275 -325 25 -29 86 -101 135 -159 50 -58 138 -162 195
-231 58 -69 107 -127 110 -130 11 -11 77 -88 115 -134 22 -27 45 -54 50 -60 6
-6 46 -54 90 -106 44 -52 83 -97 86 -100 3 -3 30 -35 60 -71 65 -80 319 -380
334 -395 5 -6 26 -30 45 -54 19 -24 41 -49 48 -57 11 -11 193 -13 1018 -13
l1005 0 -83 98 c-46 53 -92 108 -103 121 -28 33 -134 158 -208 244 -34 40 -80
95 -102 122 -22 27 -58 69 -80 94 -22 26 -87 102 -145 171 -57 69 -109 130
-115 136 -5 6 -30 35 -55 64 -49 59 -90 107 -161 191 -25 30 -90 106 -144 169
-53 63 -107 126 -119 140 -11 14 -68 81 -126 150 -58 69 -111 131 -118 138 -7
8 -56 66 -109 130 -54 64 -102 122 -108 128 -20 23 -61 70 -109 129 -28 33
-53 62 -56 65 -3 3 -28 32 -55 65 -75 89 -97 115 -135 159 -19 23 -60 70 -90
106 -30 36 -65 76 -76 90 -12 14 -77 90 -144 170 -68 80 -134 157 -147 171
l-24 26 58 74 c32 41 63 81 70 89 6 8 45 56 85 106 40 51 138 174 218 275 134
169 585 738 650 819 31 39 109 137 155 196 35 44 200 252 218 274 7 8 183 231
392 495 209 264 384 485 390 491 5 6 21 26 35 44 14 18 55 71 93 118 37 47 70
89 73 94 3 4 -447 8 -999 8 l-1003 0 -26 -32z"/>
<path d="M210 1960 l0 -1540 1296 0 1295 0 -87 102 c-47 57 -103 123 -124 148
-21 25 -77 92 -126 150 -49 58 -111 132 -139 165 -27 33 -52 62 -55 65 -3 3
-50 59 -105 125 -55 66 -102 122 -105 125 -3 3 -39 46 -80 95 -41 50 -77 92
-80 95 -3 3 -39 46 -80 95 -41 50 -113 135 -160 190 -47 56 -103 123 -125 150
-57 69 -117 139 -124 145 -3 3 -18 21 -33 40 -15 19 -39 49 -53 65 -15 17 -43
50 -63 74 -21 25 -51 61 -68 80 -17 20 -91 108 -164 196 -74 88 -136 162 -140
165 -3 3 -37 43 -75 90 -38 47 -72 87 -75 90 -3 3 -39 46 -80 95 -41 50 -77
92 -80 95 -5 5 -71 84 -263 312 l-107 128 0 -1540z"/>
</g>
</svg>
