<svg width="50" height="50" viewBox="0 0 50 50" fill="none" xmlns="http://www.w3.org/2000/svg">
<path fill-rule="evenodd" clip-rule="evenodd" d="M31.7469 33.5005C31.5166 33.7151 31.3319 33.9738 31.2038 34.2613C31.0757 34.5488 31.0068 34.8592 31.0013 35.1739C30.9957 35.4886 31.0536 35.8011 31.1715 36.093C31.2894 36.3848 31.4648 36.6499 31.6874 36.8725C31.9099 37.095 32.175 37.2705 32.4669 37.3884C32.7587 37.5063 33.0713 37.5641 33.386 37.5586C33.7007 37.553 34.0111 37.4842 34.2986 37.3561C34.5861 37.228 34.8448 37.0433 35.0594 36.813L45.2188 26.6567L46.875 25.0005L45.2188 23.3442L35.0625 13.188C34.6207 12.7608 34.0287 12.5243 33.4142 12.5294C32.7997 12.5344 32.2117 12.7806 31.777 13.215C31.3422 13.6493 31.0954 14.2371 31.0898 14.8516C31.0842 15.4661 31.3201 16.0583 31.7469 16.5005L37.9031 22.6567H5.46875C4.84715 22.6567 4.25101 22.9037 3.81147 23.3432C3.37193 23.7828 3.125 24.3789 3.125 25.0005C3.125 25.6221 3.37193 26.2182 3.81147 26.6578C4.25101 27.0973 4.84715 27.3442 5.46875 27.3442H37.9031L31.7469 33.5005Z" fill="#FDC82A"/>
</svg>
