<svg width="152" height="24" viewBox="0 0 152 24" fill="none" xmlns="http://www.w3.org/2000/svg">
<rect width="45" height="24" fill="white"/>
<path d="M18.9636 17.473H16.0916L17.8876 6.30899H20.7596L18.9636 17.473ZM29.3736 6.57999C28.5521 6.26204 27.6784 6.10092 26.7976 6.10499C23.9616 6.10499 21.9646 7.62499 21.9526 9.79899C21.9286 11.402 23.3826 12.293 24.4696 12.827C25.5796 13.374 25.9576 13.73 25.9576 14.217C25.9476 14.965 25.0606 15.31 24.2336 15.31C23.0866 15.31 22.4726 15.132 21.5386 14.716L21.1606 14.538L20.7586 17.043C21.4326 17.352 22.6736 17.626 23.9616 17.638C26.9746 17.638 28.9366 16.141 28.9596 13.825C28.9716 12.555 28.2036 11.581 26.5496 10.785C25.5446 10.275 24.9296 9.92999 24.9296 9.40699C24.9416 8.93199 25.4496 8.44499 26.5836 8.44499C27.3201 8.42351 28.0519 8.56987 28.7236 8.87299L28.9836 8.99099L29.3736 6.57999ZM33.1906 13.518L34.3366 10.394C34.3246 10.418 34.5726 9.74099 34.7146 9.32499L34.9146 10.287C34.9146 10.287 35.4596 12.959 35.5776 13.517L33.1906 13.518ZM36.7356 6.30899H34.5136C33.8286 6.30899 33.3086 6.51099 33.0136 7.23499L28.7476 17.472H31.7606L32.3636 15.798H36.0506C36.1326 16.19 36.3926 17.472 36.3926 17.472H39.0526L36.7346 6.30999L36.7356 6.30899ZM10.8806 13.921L13.6926 6.30899H16.7296L12.2156 17.461H9.17856L6.61856 7.76099C5.67512 7.21336 4.65957 6.80068 3.60156 6.53499L3.64856 6.30899H8.26856C8.89556 6.33299 9.40356 6.53499 9.56856 7.24799L10.5726 12.376V12.378L10.8806 13.921Z" fill="#1B206C"/>
<rect width="36" height="24" transform="translate(55)" fill="white"/>
<path d="M77.022 5.354H69.125V18.252H77.022V5.354Z" fill="#FF5F00"/>
<path d="M69.9357 11.803C69.9348 10.561 70.2165 9.3351 70.7592 8.218C71.302 7.1009 72.0918 6.12188 73.0687 5.35501C71.8586 4.40393 70.4053 3.8125 68.8749 3.64831C67.3446 3.48413 65.7989 3.75381 64.4145 4.42653C63.0302 5.09926 61.863 6.14789 61.0465 7.45258C60.2299 8.75726 59.7969 10.2654 59.7969 11.8045C59.7969 13.3437 60.2299 14.8518 61.0465 16.1564C61.863 17.4611 63.0302 18.5097 64.4145 19.1825C65.7989 19.8552 67.3446 20.1249 68.8749 19.9607C70.4053 19.7965 71.8586 19.2051 73.0687 18.254C72.0914 17.487 71.3014 16.5077 70.7586 15.3902C70.2158 14.2727 69.9344 13.0454 69.9357 11.803Z" fill="#EB001B"/>
<path d="M86.3423 11.803C86.3421 13.342 85.9088 14.85 85.0921 16.1545C84.2755 17.459 83.1083 18.5074 81.724 19.1799C80.3396 19.8525 78.794 20.122 77.2638 19.9578C75.7335 19.7935 74.2803 19.202 73.0703 18.251C74.0466 17.4833 74.8358 16.504 75.3785 15.3868C75.9212 14.2697 76.2032 13.044 76.2032 11.802C76.2032 10.56 75.9212 9.33427 75.3785 8.21714C74.8358 7.10002 74.0466 6.12069 73.0703 5.35299C74.2803 4.402 75.7334 3.81056 77.2635 3.64625C78.7937 3.48195 80.3392 3.75141 81.7235 4.42384C83.1078 5.09626 84.275 6.14454 85.0918 7.44889C85.9085 8.75323 86.3419 10.261 86.3423 11.8V11.802V11.803Z" fill="#F79E1B"/>
<rect width="51" height="24" transform="translate(101)" fill="white"/>
<path fill-rule="evenodd" clip-rule="evenodd" d="M117.231 6.104V6.109C117.226 6.109 115.661 6.104 115.243 7.602C114.86 8.976 113.782 12.77 113.753 12.874H113.454C113.454 12.874 112.351 8.996 111.964 7.597C111.545 6.1 109.975 6.104 109.975 6.104H106.398V17.504H109.976V10.734H110.274L112.361 17.504H114.845L116.932 10.739H117.231V17.504H120.808V6.104H117.231ZM130.3 6.104C130.3 6.104 129.251 6.199 128.76 7.299L126.225 12.875H125.927V6.105H122.348V17.505H125.728C125.728 17.505 126.825 17.405 127.318 16.31L129.802 10.734H130.1V17.504H133.678V6.104H130.298H130.3ZM135.268 11.282V17.505H138.846V13.87H142.722C144.412 13.87 145.842 12.79 146.374 11.281L135.268 11.282Z" fill="#4DB45E"/>
<path fill-rule="evenodd" clip-rule="evenodd" d="M142.724 6.104H134.77C135.013 7.41739 135.708 8.6043 136.734 9.45905C137.761 10.3138 139.054 10.7825 140.39 10.784H146.521C146.576 10.525 146.601 10.261 146.601 9.987C146.601 9.47749 146.501 8.97283 146.307 8.50188C146.112 8.03094 145.827 7.60293 145.467 7.24232C145.107 6.88171 144.68 6.59557 144.209 6.40025C143.739 6.20493 143.233 6.10427 142.724 6.104Z" fill="url(#paint0_linear_331_15615)"/>
<defs>
<linearGradient id="paint0_linear_331_15615" x1="134.77" y1="8.444" x2="146.6" y2="8.444" gradientUnits="userSpaceOnUse">
<stop offset="0.3" stop-color="#00B4E6"/>
<stop offset="1" stop-color="#088CCB"/>
</linearGradient>
</defs>
</svg>
