<svg width="137" height="57" viewBox="0 0 137 57" fill="none" xmlns="http://www.w3.org/2000/svg">
<path fill-rule="evenodd" clip-rule="evenodd" d="M2.20473 44.4372C1.66841 44.6281 1.26754 45.0358 1.07145 45.5899C0.973758 45.8656 0.954834 46.6437 0.954834 50.3741C0.954834 55.3274 0.95168 55.294 1.4761 55.8321C2.05539 56.4265 1.61952 56.3866 7.79487 56.4108L13.3339 56.4324V55.4482V54.464H8.95394C4.32952 54.464 4.21314 54.4554 4.07886 54.1069C4.05197 54.037 4.0299 52.3423 4.0299 50.3411C4.0299 46.8761 4.03707 46.6937 4.18057 46.5171L4.33125 46.3316L8.81288 46.2923L13.2945 46.253L13.3167 45.2904L13.3388 44.3279L7.91559 44.3314C3.66586 44.334 2.43015 44.357 2.20473 44.4372ZM14.6743 50.3781V56.4284H16.2119H17.7494V53.7568V51.0853H21.1398H24.5303V53.7568V56.4284H26.0678H27.6054V50.3781V44.3279H26.0678H24.5303V46.7244V49.1209H21.1398H17.7494V46.7244V44.3279H16.2119H14.6743V50.3781ZM31.5387 44.4363C31.0964 44.5938 30.7797 44.8546 30.5428 45.2563L30.3256 45.6244V50.3843V55.1442L30.5642 55.5288C30.7121 55.7672 30.9496 56.0039 31.1888 56.1513L31.5747 56.3891L37.5931 56.4106L43.6114 56.4321V55.4498V54.4675L38.6462 54.4461L33.681 54.4247L33.5014 54.2459C33.3292 54.0744 33.3207 54.0057 33.296 52.5762L33.2701 51.0853H38.0071H42.7441V50.1038V49.1222L38.033 49.1019L33.3218 49.0817V47.8765V46.6713L33.5431 46.4818L33.7643 46.2923H38.2542H42.7441V45.3101V44.3279L37.2839 44.3314C33.0283 44.334 31.7609 44.3572 31.5387 44.4363ZM43.961 44.7404C45.3898 47.9581 48.6519 55.1638 48.8386 55.5146C48.9974 55.813 49.1947 56.0488 49.3974 56.1825L49.7106 56.3891H51.6087C54.1195 56.3891 53.9765 56.4706 54.8669 54.5337C55.3393 53.5064 59.021 45.3243 59.309 44.6619L59.4542 44.3279L57.8603 44.3301L56.2665 44.3324L54.1791 49.2822C53.031 52.0046 52.0571 54.2665 52.0147 54.3087C51.9037 54.4194 51.2929 54.4032 51.2016 54.2872C51.1589 54.2332 50.1877 51.9708 49.0433 49.2596L46.9625 44.3302L45.3701 44.3291L43.7778 44.3279L43.961 44.7404ZM60.7214 50.3763V56.4284H62.2589H63.7965V51.358V46.2877L67.4608 46.3096L71.125 46.3316L71.3046 46.5106C71.475 46.6803 71.4841 46.7479 71.4841 47.8334V48.9774L71.2629 49.1671L71.0416 49.3567H68.4363C65.6313 49.3567 65.4208 49.384 65.2342 49.7727C64.9603 50.344 65.0688 50.6277 65.7882 51.2195C66.1021 51.4778 67.6494 52.7555 69.2266 54.0588L72.0942 56.4284H74.3883C76.3169 56.4284 76.664 56.4115 76.567 56.3224C76.5035 56.2642 75.0855 55.1813 73.4159 53.9159C71.7463 52.6507 70.3102 51.5491 70.2248 51.4682C70.0724 51.3241 70.1002 51.321 71.5652 51.3202C72.9685 51.3195 73.0857 51.3081 73.4585 51.135C73.9183 50.9217 74.2139 50.6035 74.3975 50.1243C74.5086 49.8345 74.5239 49.4851 74.5038 47.6987L74.4803 45.6116L74.2417 45.2272C74.094 44.9892 73.8561 44.7522 73.6172 44.605L73.2312 44.3672L66.9763 44.3457L60.7214 44.3242V50.3763ZM78.3127 44.535C77.8489 44.7653 77.4836 45.1999 77.3556 45.6736C77.3032 45.8674 77.2824 47.5933 77.2967 50.5527L77.3188 55.1319L77.5307 55.491C77.7691 55.895 78.1905 56.215 78.6593 56.3476C78.8848 56.4114 80.5358 56.43 84.4546 56.413C90.5646 56.3863 90.1352 56.4263 90.7158 55.8305C91.2452 55.2873 91.2417 55.3256 91.2177 50.254L91.196 45.703L91.0106 45.3276C90.8064 44.9144 90.448 44.6016 89.9938 44.44C89.7578 44.3561 88.5887 44.3341 84.2138 44.3314L78.7297 44.3279L78.3127 44.535ZM93.9163 50.3781V56.4284H100.185H106.453V55.4462V54.464H101.722H96.9913V49.396V44.3279H95.4538H93.9163V50.3781ZM108.731 44.4363C108.288 44.5938 107.972 44.8546 107.735 45.2563L107.518 45.6244V50.3781C107.518 55.6422 107.488 55.3257 108.036 55.8723C108.589 56.4232 108.132 56.3868 114.791 56.4106L120.803 56.4321V55.4498V54.4675L115.829 54.4461L110.855 54.4247L110.704 54.2392C110.567 54.0712 110.553 53.9137 110.553 52.5695V51.0853H115.245H119.936V50.1031V49.1209H115.245H110.553V47.9118C110.553 46.8384 110.57 46.6817 110.704 46.5171L110.855 46.3316L115.395 46.31L119.936 46.2885V45.3082V44.3279L114.476 44.3314C110.22 44.334 108.953 44.3572 108.731 44.4363ZM121.513 45.3101V46.2923H124.194H126.875V51.3603V56.4284H128.412H129.95V51.3603V46.2923H132.631H135.311V45.3101V44.3279H128.412H121.513V45.3101ZM80.5558 46.4774C80.4081 46.6246 80.3592 46.7814 80.317 47.2435C80.2435 48.0477 80.3017 53.9211 80.3848 54.0937C80.5565 54.4501 80.7016 54.464 84.2574 54.464C87.7909 54.464 87.9807 54.4464 88.1114 54.1069C88.1383 54.037 88.1604 52.3368 88.1604 50.3289V46.678L87.9668 46.4852L87.7733 46.2923H84.2574H80.7415L80.5558 46.4774Z" fill="white"/>
<path d="M28.1251 8.07728L19.2721 26.2181C19.2379 26.2882 19.289 26.3699 19.367 26.3699H52.0485C52.1068 26.3699 52.154 26.4172 52.154 26.4755V32.8098C52.154 32.8681 52.2013 32.9154 52.2596 32.9154H83.4737C83.532 32.9154 83.5793 32.8681 83.5793 32.8098V26.4755C83.5793 26.4172 83.6266 26.3699 83.6849 26.3699H107.513C107.554 26.3699 107.591 26.3469 107.608 26.3107L116.461 8.16989C116.495 8.09976 116.444 8.01801 116.366 8.01801H83.6849C83.6266 8.01801 83.5793 7.97075 83.5793 7.91244V1.6837C83.5793 1.62539 83.532 1.57812 83.4737 1.57812H52.2596C52.2013 1.57812 52.154 1.62539 52.154 1.6837V7.91244C52.154 7.97075 52.1068 8.01801 52.0485 8.01801H28.22C28.1796 8.01801 28.1428 8.04102 28.1251 8.07728Z" fill="white" stroke="white" stroke-width="1.45946" stroke-linejoin="round"/>
<path d="M35.0514 11.1498L29.2097 22.6219H55.3863L55.3863 29.6776H80.347L80.347 22.6219H100.594L106.084 11.1498H80.347V4.79785H55.3863V11.1498H35.0514Z" fill="white" stroke="#272727" stroke-width="2.18919" stroke-linejoin="round"/>
</svg>
