<svg width="164" height="34" viewBox="0 0 164 34" fill="none" xmlns="http://www.w3.org/2000/svg">
<g clip-path="url(#clip0_317_20565)">
<path fill-rule="evenodd" clip-rule="evenodd" d="M152.598 11.2229H145.948C144.833 11.2901 144.518 11.5722 144.518 12.9603V16.7845H152.594V11.2229H152.598ZM156.139 8.16V24.8403H152.598V20.0444H144.523V24.8403H140.981V11.7647C140.981 9.45412 141.895 8.16 144.523 8.16H156.139ZM137.44 11.7602V20.7877C137.44 23.6626 135.862 24.8358 133.899 24.8358H122.732V8.15552H133.899C136.915 8.15552 137.44 10.1213 137.44 11.7602ZM133.855 12.7633C133.855 11.8498 133.313 11.2184 132.36 11.2184H126.269V21.643H132.36C133.746 21.5714 133.855 20.7206 133.855 20.0444V12.7633ZM50.5625 8.15552H54.1039V14.7291H62.0261V8.15552H65.5675V24.8403H62.0261V18.0338H54.1039V24.8403H50.5625V8.15552ZM71.6315 8.15552L76.0692 14.9754L80.4544 8.15552H84.7521L77.8355 18.8219V24.8403H74.2941V18.8219L67.3294 8.16H71.6272L71.6315 8.15552ZM104.628 8.15552H116.034C117.661 8.15552 119.235 8.38837 119.191 11.7602V24.8358H115.65V12.9603C115.65 11.5229 115.483 11.2229 114.382 11.2229H108.169V24.8403H104.628V8.15552ZM163.218 8.15552V24.8403H159.676V8.16H163.218V8.15552ZM86.5272 24.8403H97.9339C100.203 24.8403 101.134 24.1686 101.091 20.8191V8.15552H97.5492V20.0668C97.5492 21.4953 97.3831 21.6654 96.2813 21.6654H90.0686V8.15552H86.5272V24.8403Z" fill="white"/>
<path fill-rule="evenodd" clip-rule="evenodd" d="M25.5719 18.9739C25.8823 20.6262 25.0385 21.9965 24.3346 23.3309C23.552 24.5713 22.2666 25.637 20.7189 25.4758C17.2431 25.4221 13.8504 24.8758 10.7025 23.9041C10.5582 23.8638 10.4183 23.7697 10.3396 23.6399C10.274 23.4518 10.3658 23.2817 10.497 23.1608C13.3738 20.774 16.7928 19.668 20.1767 18.5082C21.4403 18.1365 22.7781 17.7335 24.1991 17.9216C24.7849 18.0022 25.3708 18.4142 25.5763 18.9739H25.5719ZM37.4246 11.9122C39.0379 13.2735 40.4938 15.1229 39.9997 17.3618C39.1953 20.6665 35.6801 22.4264 32.882 23.5459C31.3605 24.0653 29.8259 24.5982 28.1602 24.7594C28.0552 24.7459 27.8891 24.7728 27.8629 24.6116L27.9022 24.4235C30.2719 21.692 32.0644 18.6291 33.6384 15.5214C34.3685 14.1243 35.0418 12.6824 35.667 11.2719C35.7588 11.1644 35.8506 11.1107 35.9512 11.0704C36.5371 11.1241 36.9524 11.5898 37.4202 11.9077L37.4246 11.9122ZM14.7204 8.39256L14.6679 8.59406C11.2446 12.5794 8.99735 17.2006 6.86378 21.7995C6.44843 22.198 6.0462 21.6651 5.66583 21.495C3.76835 20.2143 2.05012 18.15 2.54417 15.7005C3.33989 12.5033 6.55336 10.7972 9.23344 9.63742C10.8205 9.02395 12.4732 8.53137 14.2176 8.24926C14.4012 8.24926 14.633 8.2224 14.7248 8.39704L14.7204 8.39256ZM31.6972 9.0329C31.8939 9.14037 32.1256 9.18067 32.2437 9.3777C32.3486 9.60608 32.1387 9.74937 32.0207 9.89714C29.3275 12.0555 26.2452 13.2556 23.0973 14.3079C21.4971 14.7064 19.8838 15.4274 18.1 15.0288C17.6847 14.9214 17.3043 14.6437 17.0726 14.2273C16.631 12.9735 17.23 11.6704 17.7502 10.5778C18.441 9.20754 19.6608 7.59101 21.3528 7.56414C24.9948 7.53727 28.4312 8.09702 31.6972 9.02842V9.0329ZM36.2004 9.14037C38.9592 10.6853 42.0809 13.4034 41.7573 17.0305C41.3813 20.3889 38.3209 22.7353 35.5883 24.1459C27.6137 28.0506 16.4124 28.1715 8.1754 24.7594C5.39039 23.5727 2.26873 21.5353 1.09701 18.4679C0.200735 15.9513 1.29375 13.3228 3.12565 11.5808C6.96434 8.00746 11.8567 6.78051 16.8933 6.07299C22.3584 5.39235 28.1077 5.99239 33 7.71191C34.0931 8.12388 35.173 8.57615 36.2004 9.13589V9.14037Z" fill="white"/>
</g>
<defs>
<clipPath id="clip0_317_20565">
<rect width="162.444" height="34" fill="white" transform="translate(0.777832)"/>
</clipPath>
</defs>
</svg>
