<svg width="258" height="54" viewBox="0 0 258 54" fill="none" xmlns="http://www.w3.org/2000/svg">
<path fill-rule="evenodd" clip-rule="evenodd" d="M241.126 17.8244H230.565C228.794 17.931 228.294 18.3791 228.294 20.5838V26.6575H241.119V17.8244H241.126ZM246.751 12.9597V39.4519H241.126V31.835H228.301V39.4519H222.676V18.6849C222.676 15.0151 224.128 12.9597 228.301 12.9597H246.751ZM217.052 18.6778V33.0156C217.052 37.5815 214.545 39.4448 211.427 39.4448H193.693V12.9526H211.427C216.218 12.9526 217.052 16.0748 217.052 18.6778ZM211.358 20.2709C211.358 18.82 210.497 17.8172 208.983 17.8172H199.31V34.374H208.983C211.184 34.2602 211.358 32.9089 211.358 31.835V20.2709ZM79.0698 12.9526H84.6944V23.3931H97.2767V12.9526H102.901V39.4519H97.2767V28.6417H84.6944V39.4519H79.0698V12.9526ZM112.532 12.9526L119.58 23.7842L126.545 12.9526H133.371L122.386 29.8934V39.4519H116.761V29.8934L105.7 12.9597H112.525L112.532 12.9526ZM164.938 12.9526H183.054C185.638 12.9526 188.137 13.3225 188.068 18.6778V39.4448H182.443V20.5838C182.443 18.3009 182.18 17.8244 180.43 17.8244H170.562V39.4519H164.938V12.9526ZM257.993 12.9526V39.4519H252.368V12.9597H257.993V12.9526ZM136.19 39.4519H154.307C157.911 39.4519 159.39 38.3851 159.32 33.0654V12.9526H153.696V31.8706C153.696 34.1393 153.432 34.4095 151.682 34.4095H141.815V12.9526H136.19V39.4519Z" fill="#fdc82a"/>
<path fill-rule="evenodd" clip-rule="evenodd" d="M39.3789 30.1352C39.8719 32.7595 38.5317 34.9358 37.4138 37.0552C36.1708 39.0252 34.1293 40.7179 31.6712 40.4618C26.1508 40.3765 20.7623 39.5088 15.7627 37.9655C15.5336 37.9015 15.3114 37.7522 15.1864 37.5459C15.0822 37.2472 15.2281 36.9769 15.4364 36.7849C20.0055 32.9942 25.4356 31.2376 30.8101 29.3956C32.8169 28.8053 34.9418 28.1652 37.1985 28.4639C38.129 28.5919 39.0595 29.2462 39.3858 30.1352H39.3789ZM58.2038 18.9196C60.7661 21.0816 63.0784 24.0189 62.2937 27.5749C61.016 32.8235 55.4332 35.6186 50.9891 37.3966C48.5726 38.2215 46.1353 39.0679 43.4897 39.3239C43.323 39.3026 43.0592 39.3452 43.0175 39.0892L43.08 38.7905C46.8436 34.4522 49.6906 29.5876 52.1904 24.6519C53.35 22.4329 54.4194 20.1429 55.4123 17.9026C55.5582 17.7319 55.704 17.6465 55.8637 17.5825C56.7942 17.6679 57.4538 18.4075 58.1968 18.9125L58.2038 18.9196ZM22.1442 13.3296L22.0608 13.6496C16.6238 19.9793 13.0546 27.3189 9.66601 34.6229C9.00635 35.2558 8.36751 34.4095 7.76339 34.1393C4.74974 32.1052 2.0208 28.8266 2.80546 24.9363C4.06924 19.8584 9.173 17.1487 13.4296 15.3067C15.9502 14.3323 18.575 13.55 21.3456 13.102C21.6373 13.102 22.0053 13.0593 22.1511 13.3367L22.1442 13.3296ZM49.1073 14.3466C49.4198 14.5173 49.7878 14.5813 49.9753 14.8942C50.1419 15.2569 49.8086 15.4845 49.6211 15.7192C45.3437 19.1472 40.4483 21.0532 35.4487 22.7245C32.9072 23.3575 30.3449 24.5025 27.5118 23.8695C26.8521 23.6989 26.248 23.2579 25.88 22.5965C25.1787 20.6051 26.13 18.5355 26.9563 16.8002C28.0534 14.6239 29.9908 12.0565 32.6781 12.0138C38.4623 11.9712 43.9202 12.8602 49.1073 14.3395V14.3466ZM56.2595 14.5173C60.6411 16.9709 65.599 21.2879 65.0852 27.0486C64.488 32.3826 59.6273 36.1093 55.2873 38.3496C42.6217 44.5512 24.8315 44.7432 11.7492 39.3239C7.32592 37.4392 2.36799 34.2033 0.507031 29.3316C-0.916465 25.3346 0.819506 21.1599 3.72899 18.3933C9.82572 12.7179 17.5959 10.7692 25.5953 9.64554C34.2751 8.56452 43.4063 9.51753 51.1766 12.2485C52.9125 12.9028 54.6277 13.6211 56.2595 14.5101V14.5173Z" fill="#fdc82a"/>
</svg>
