<svg width="124" height="30" viewBox="0 0 124 30" fill="none" xmlns="http://www.w3.org/2000/svg">
<path d="M71.3325 25.7525C71.3325 25.9765 71.3947 26.0987 71.5399 26.0987C71.6436 26.0987 71.7265 26.0579 71.8303 25.9968L109.249 2.10947C109.913 1.68182 110.514 1.45781 111.406 1.45781H119.641C120.906 1.45781 121.756 2.29275 121.756 3.53497V18.9508C121.756 20.8039 121.341 21.8832 119.641 22.8811L109.664 28.7664C109.539 28.8479 109.415 28.8886 109.332 28.8886C109.207 28.8886 109.104 28.8071 109.104 28.4609V10.4588C109.104 10.2552 109.041 10.1127 108.896 10.1127C108.792 10.1127 108.709 10.1534 108.606 10.2145L81.2471 27.6667C80.4797 28.1555 79.8574 28.298 79.1522 28.298H61.0029C59.7377 28.298 58.8873 27.4631 58.8873 26.2208V4.02372C58.8873 3.8608 58.8043 3.71825 58.6798 3.71825C58.5761 3.71825 58.4932 3.75898 58.3895 3.82007L40.3439 14.4706C40.1573 14.5724 40.1158 14.6743 40.1158 14.7557C40.1158 14.8372 40.1365 14.8983 40.2817 15.0205L53.1625 27.6667C53.3284 27.8296 53.4529 27.9722 53.4529 28.0944C53.4529 28.2369 53.2662 28.3184 53.038 28.3184H41.381C40.4684 28.3184 39.7632 28.1758 39.2654 27.6871L31.4456 20.0097C31.3627 19.9283 31.3004 19.8875 31.2175 19.8875C31.1552 19.8875 31.0515 19.9283 30.9686 19.969L17.9011 27.6871C17.1129 28.1555 16.5736 28.298 15.7854 28.298H3.75509C2.48983 28.298 1.6394 27.4631 1.6394 26.2208V11.0901C1.6394 9.21662 2.05424 8.15768 3.75509 7.15982L13.7942 1.2338C13.8979 1.17271 13.9809 1.15234 14.0638 1.15234C14.209 1.15234 14.292 1.31526 14.292 1.64109V21.8832C14.292 22.0869 14.3542 22.1887 14.4994 22.1887C14.5824 22.1887 14.6861 22.1276 14.7898 22.0665L48.703 2.04838C49.5119 1.58 50.0097 1.43744 50.9431 1.43744H69.196C70.4613 1.43744 71.3117 2.27238 71.3117 3.51461L71.3325 25.7525Z" fill="white"/>
</svg>
